<svg width="103" height="128" viewBox="0 0 103 128" fill="none" xmlns="http://www.w3.org/2000/svg">
<g clip-path="url(#clip0_8786_8291)">
<g clip-path="url(#clip1_8786_8291)">
<path d="M11.52 0C5.1584 0 0 5.1584 0 11.52C0 16.3968 3.0848 20.7232 7.68 22.3488V51.2C7.68 53.3248 9.3952 55.04 11.52 55.04C11.9168 55.04 12.3136 54.976 12.6976 54.848L42.0736 45.376C44.2496 48.2304 47.616 49.9072 51.2 49.92C57.5616 49.92 62.72 44.7616 62.72 38.4C62.72 32.0384 57.5616 26.88 51.2 26.88C44.9664 26.88 39.8848 31.8464 39.7056 38.0672L15.36 45.9136V22.336C19.9552 20.7104 23.0272 16.3712 23.04 11.5072C23.04 5.1584 17.8816 0 11.52 0Z" fill="#E30427"/>
<path d="M90.8797 128.001C97.2413 128.001 102.4 122.843 102.4 116.481C102.4 111.604 99.3149 107.278 94.7197 105.652V76.8009C94.7197 74.6761 93.0045 72.9609 90.8797 72.9609C90.4829 72.9609 90.0861 73.0249 89.7021 73.1529L60.3261 82.6249C58.1501 79.7705 54.7837 78.0937 51.1997 78.0809C44.8381 78.0809 39.6797 83.2393 39.6797 89.6009C39.6797 95.9625 44.8381 101.121 51.1997 101.121C57.4333 101.121 62.5149 96.1545 62.6941 89.9337L87.0397 82.0873V105.665C82.4445 107.291 79.3725 111.63 79.3597 116.494C79.3597 122.855 84.5181 128.014 90.8797 128.014V128.001Z" fill="#E30427"/>
<path d="M90.88 0C84.5184 0 79.36 5.1584 79.36 11.52C79.36 16.3968 82.4448 20.7488 87.04 22.3744V48.4096L10.3424 73.1392C8.7552 73.6512 7.68 75.136 7.6928 76.8V105.626C3.0848 107.251 0 111.603 0 116.48C0 122.842 5.1584 128 11.52 128C17.8816 128 23.04 122.842 23.04 116.48C23.04 111.603 19.968 107.251 15.36 105.626V79.6032L92.0576 54.8608C93.6448 54.3488 94.72 52.8768 94.72 51.2128V22.3872C99.3152 20.7616 102.387 16.4096 102.4 11.5328C102.4 5.1584 97.2416 0 90.88 0Z" fill="#6B6A6A"/>
</g>
</g>
<defs>
<clipPath id="clip0_8786_8291">
<rect width="102.4" height="128" fill="white"/>
</clipPath>
<clipPath id="clip1_8786_8291">
<rect width="102.4" height="128" fill="white"/>
</clipPath>
</defs>
</svg>
