<svg width="70" height="70" viewBox="0 0 70 70" fill="none" xmlns="http://www.w3.org/2000/svg">
<path d="M26.5901 3.28125C27.0022 1.37684 28.8015 0 30.8893 0H39.103C41.1908 0 42.9901 1.37684 43.4021 3.28125L45.3938 12.2886C47.3304 13.0607 49.1435 14.0515 50.7917 15.2224L60.1043 12.3272C62.0821 11.7096 64.2523 12.4816 65.2962 14.1801L69.4031 20.8456C70.4469 22.5441 70.0761 24.6801 68.5103 25.9798L61.1893 32.079C61.313 33.0312 61.3679 34.0092 61.3679 35C61.3679 35.9908 61.2992 36.9688 61.1893 37.921L68.524 44.0331C70.0898 45.3327 70.4469 47.4816 69.4168 49.1673L65.3099 55.8327C64.2661 57.5184 62.0959 58.3033 60.118 57.6857L50.8055 54.7904C49.1435 55.9614 47.3304 56.9393 45.4075 57.7243L43.4296 66.7188C43.0038 68.636 41.2045 70 39.1305 70H30.9168C28.829 70 27.0297 68.6232 26.6176 66.7188L24.6397 57.7243C22.703 56.9522 20.9037 55.9614 19.2418 54.7904L9.88802 57.6857C7.91013 58.3033 5.73996 57.5312 4.69607 55.8327L0.589222 49.1673C-0.454661 47.4688 -0.0838078 45.3327 1.48202 44.0331L8.81666 37.921C8.69304 36.9688 8.6381 35.9908 8.6381 35C8.6381 34.0092 8.70678 33.0312 8.81666 32.079L1.48202 25.9669C-0.0838078 24.6673 -0.440926 22.5184 0.589222 20.8327L4.69607 14.1673C5.73996 12.4688 7.91013 11.6967 9.88802 12.3143L19.2005 15.2096C20.8625 14.0386 22.6756 13.0607 24.5985 12.2757L26.5901 3.28125ZM34.9961 45.2941C41.0671 45.2684 45.9706 40.6489 45.9432 34.9614C45.9157 29.2739 40.9847 24.6801 34.9137 24.7059C28.8427 24.7316 23.9392 29.3511 23.9667 35.0386C23.9942 40.7261 28.9251 45.3199 34.9961 45.2941Z" fill="#1A1A1A"/>
</svg>
