<svg width="80" height="68" viewBox="0 0 80 68" fill="none" xmlns="http://www.w3.org/2000/svg">
<path d="M49.6066 0.164604C47.2691 -0.478521 44.8353 0.820854 44.1616 3.0521L26.5616 61.8521C25.8878 64.0834 27.2491 66.4065 29.5866 67.0496C31.9241 67.6927 34.3578 66.3933 35.0316 64.1621L52.6316 5.3621C53.3053 3.13086 51.9441 0.807729 49.6066 0.164604ZM58.4891 18.0277C56.7703 19.6684 56.7703 22.3327 58.4891 23.9734L68.5816 33.6071L58.4891 43.2409C56.7703 44.8815 56.7703 47.5459 58.4891 49.1865C60.2078 50.8271 62.9991 50.8271 64.7178 49.1865L77.9178 36.5865C79.6366 34.9459 79.6366 32.2815 77.9178 30.6409L64.7178 18.0409C62.9991 16.4002 60.2078 16.4002 58.4891 18.0409V18.0277ZM20.7178 18.0277C18.9991 16.3871 16.2078 16.3871 14.4891 18.0277L1.28906 30.6277C-0.429687 32.2683 -0.429687 34.9327 1.28906 36.5734L14.4891 49.1734C16.2078 50.814 18.9991 50.814 20.7178 49.1734C22.4366 47.5327 22.4366 44.8684 20.7178 43.2277L10.6253 33.6071L20.7041 23.9734C22.4228 22.3327 22.4228 19.6684 20.7041 18.0277H20.7178Z" fill="#1A1A1A"/>
</svg>
